<?xml version="1.0" standalone="no"?>
<!DOCTYPE svg PUBLIC "-//W3C//DTD SVG 20010904//EN"
 "http://www.w3.org/TR/2001/REC-SVG-20010904/DTD/svg10.dtd">
<svg version="1.0" xmlns="http://www.w3.org/2000/svg"
 width="512.000000pt" height="512.000000pt" viewBox="0 0 512.000000 512.000000"
 preserveAspectRatio="xMidYMid meet">
<metadata>
Created by potrace 1.11, written by Peter Selinger 2001-2013
</metadata>
<g transform="translate(0.000000,512.000000) scale(0.100000,-0.100000)"
fill="#000000" stroke="none">
<path d="M0 2560 l0 -2560 2560 0 2560 0 0 2560 0 2560 -2560 0 -2560 0 0
-2560z m1531 901 c33 -34 39 -82 14 -118 -17 -25 -71 -43 -127 -43 -38 0 -38
0 -38 -40 0 -33 -3 -40 -20 -40 -19 0 -20 7 -20 135 l0 135 81 0 c76 0 82 -2
110 -29z m274 15 c98 -41 98 -201 0 -242 -20 -8 -67 -14 -110 -14 l-75 0 0
135 0 135 75 0 c43 0 90 -6 110 -14z m296 -3 c18 -18 1 -35 -21 -23 -26 14
-93 13 -108 -2 -7 -7 -12 -22 -12 -34 0 -22 14 -30 95 -54 22 -7 46 -19 53
-28 21 -27 14 -69 -15 -92 -23 -18 -38 -21 -86 -18 -36 3 -64 11 -74 21 -23
23 -10 32 25 18 41 -17 112 -10 126 12 18 28 -5 50 -72 70 -70 20 -98 50 -88
92 9 37 52 56 114 52 29 -2 58 -9 63 -14z m-1271 -3 c108 -20 240 -105 240
-153 0 -23 -181 -311 -213 -339 -15 -15 -38 -18 -117 -18 l-97 0 -17 -58 c-57
-205 -59 -450 -4 -654 l20 -78 93 0 c51 0 100 -3 109 -6 22 -8 226 -327 226
-353 0 -32 -54 -78 -137 -118 -208 -100 -460 -16 -570 192 -42 81 -98 245
-125 369 -19 86 -22 132 -22 311 0 179 3 224 22 308 27 123 73 262 117 352 88
183 280 282 475 245z m2905 -574 c-32 -62 -32 -110 0 -171 18 -37 21 -52 13
-62 -9 -11 -14 -11 -29 3 -57 51 -64 190 -15 264 24 36 30 40 42 29 12 -12 10
-22 -11 -63z m376 -31 c15 -53 5 -119 -26 -172 -27 -46 -34 -50 -53 -31 -8 8
-7 17 7 37 44 61 46 141 6 209 -16 26 -16 33 -5 46 11 14 15 13 37 -16 13 -18
28 -51 34 -73z m-2461 -230 l0 -305 -55 0 -55 0 0 305 0 305 55 0 55 0 0 -305z
m270 0 l0 -305 -55 0 -55 0 0 305 0 305 55 0 55 0 0 -305z m683 271 c50 -18
76 -42 98 -91 28 -61 26 -65 -36 -65 -32 0 -55 4 -55 10 0 6 -11 22 -25 35
-47 48 -175 22 -175 -34 0 -28 28 -47 144 -95 111 -46 147 -71 172 -118 42
-81 -15 -189 -115 -219 -21 -6 -74 -10 -119 -8 -70 4 -86 8 -123 34 -42 30
-71 74 -83 128 -6 27 -6 27 49 27 43 0 55 -3 55 -16 0 -8 13 -29 29 -45 26
-26 37 -29 89 -29 45 0 66 5 86 21 55 43 24 92 -88 134 -145 55 -190 87 -206
147 -21 77 24 154 106 183 50 18 148 18 197 1z m1202 -52 c-18 -36 -19 -61 0
-94 9 -18 10 -29 3 -37 -16 -20 -24 -16 -42 21 -22 46 -20 94 5 135 18 30 22
32 35 19 13 -13 13 -18 -1 -44z m230 -25 c6 -36 -12 -100 -33 -113 -18 -11
-35 21 -23 43 6 11 11 34 11 51 0 17 -5 40 -11 51 -8 15 -7 24 2 35 11 14 15
13 30 -8 10 -13 21 -39 24 -59z m793 -12 l3 -59 55 4 54 3 0 -37 0 -38 -57 0
-58 0 3 -134 c4 -157 8 -166 74 -149 42 11 41 12 52 -40 5 -23 2 -29 -19 -37
-39 -15 -122 -12 -155 5 -51 26 -60 58 -60 215 l0 140 -30 0 c-28 0 -30 2 -30
38 0 35 2 38 28 37 26 0 27 2 30 58 l3 58 52 -3 52 -3 3 -58z m-885 22 c17
-24 18 -30 6 -55 -19 -40 -79 -47 -103 -12 -22 30 -20 54 5 79 27 27 66 21 92
-12z m-2629 -87 c16 -9 38 -30 50 -45 19 -26 21 -44 24 -203 l3 -175 -47 3
c-42 3 -49 6 -55 28 -4 14 -7 19 -8 12 -1 -7 -16 -21 -33 -32 -45 -27 -135
-27 -188 0 -103 52 -90 198 19 231 21 6 75 10 119 8 l82 -4 0 40 c0 49 -7 61
-43 74 -41 16 -87 3 -106 -30 -14 -26 -21 -29 -68 -29 -52 0 -53 1 -53 29 0
55 53 99 140 114 42 8 134 -4 164 -21z m1778 18 c65 -18 128 -87 128 -140 0
-17 -6 -20 -46 -20 -42 0 -51 4 -79 37 -31 36 -34 37 -71 28 -48 -13 -76 -57
-77 -124 -1 -65 18 -106 57 -125 53 -25 93 -8 110 47 4 13 16 17 56 17 50 0
50 0 50 -32 0 -144 -238 -191 -334 -66 -36 49 -48 85 -48 159 0 47 6 78 21
106 24 48 81 101 119 109 15 3 32 7 37 9 19 6 40 5 77 -5z m1403 -28 c25 -17
50 -47 68 -82 26 -49 28 -63 24 -127 -5 -89 -41 -155 -102 -190 -51 -29 -137
-31 -180 -5 l-30 19 3 -119 3 -118 -55 0 -56 0 0 323 0 322 45 -3 c41 -4 45
-6 45 -30 l0 -26 29 28 c55 52 135 55 206 8z m-1037 -8 l3 -31 34 34 c27 27
41 33 74 33 l41 0 0 -55 0 -55 -41 0 c-91 0 -109 -34 -109 -205 l0 -125 -55 0
-55 0 0 221 0 220 53 -3 c50 -3 52 -4 55 -34z m546 -224 l69 -200 33 0 c27 0
34 -4 34 -20 0 -19 -7 -20 -245 -20 -238 0 -245 1 -245 20 0 16 7 20 33 20 33
0 33 1 61 88 16 48 46 138 68 200 l40 112 42 0 41 0 69 -200z m-2077 -496 c8
-21 -13 -42 -28 -27 -13 13 -5 43 11 43 6 0 13 -7 17 -16z m103 -129 c0 -122
-2 -145 -15 -145 -13 0 -15 23 -15 145 0 122 2 145 15 145 13 0 15 -23 15
-145z m268 -3 c2 -139 2 -142 -19 -142 -15 0 -19 4 -15 16 6 15 4 15 -18 0
-57 -37 -146 -2 -161 63 -9 41 17 96 54 115 37 20 58 20 94 2 l27 -15 0 48 c0
49 6 64 24 58 7 -2 12 -57 14 -145z m-764 107 c29 -23 35 -69 11 -89 -13 -11
-12 -16 11 -43 19 -22 24 -37 19 -56 -12 -48 -28 -56 -135 -59 l-100 -4 0 136
0 136 84 0 c69 0 88 -4 110 -21z m126 -113 c0 -86 12 -106 65 -106 49 0 65 28
65 112 0 54 3 68 15 68 12 0 15 -18 15 -105 0 -87 -3 -105 -15 -105 -8 0 -15
7 -15 17 0 15 -1 15 -18 0 -28 -26 -88 -22 -117 8 -22 22 -25 32 -25 105 0 64
3 80 15 80 12 0 15 -15 15 -74z m268 -34 c3 -97 2 -102 -18 -102 -19 0 -20 6
-20 98 0 54 3 102 7 106 20 19 28 -8 31 -102z m561 97 c33 -12 61 -52 61 -89
0 -19 -6 -20 -85 -20 -89 0 -99 -6 -65 -40 23 -23 88 -28 108 -8 9 9 15 9 23
1 16 -16 -28 -43 -69 -43 -94 0 -146 94 -91 164 34 43 66 53 118 35z m141 -4
c0 -19 9 -19 34 0 24 18 46 19 46 3 0 -7 -15 -20 -33 -28 -32 -15 -32 -16 -35
-92 -3 -70 -5 -78 -22 -78 -19 0 -20 7 -20 98 0 54 3 102 7 105 11 12 23 8 23
-8z"/>
<path d="M1380 3395 l0 -65 49 0 c83 0 124 52 85 108 -13 19 -24 22 -75 22
l-59 0 0 -65z"/>
<path d="M1650 3355 l0 -105 60 0 c71 0 101 12 123 50 31 53 12 126 -40 149
-13 6 -51 11 -83 11 l-60 0 0 -105z"/>
<path d="M643 3362 c-110 -39 -163 -93 -218 -223 -78 -182 -115 -365 -115
-573 0 -215 36 -395 118 -586 42 -98 98 -162 177 -200 42 -21 64 -25 145 -25
84 0 101 3 147 27 28 15 54 31 57 36 2 4 -31 63 -75 130 l-81 122 -109 0 -108
0 -16 29 c-50 98 -92 372 -81 536 11 164 66 396 99 417 6 4 58 8 115 8 l102 0
79 122 c55 84 77 126 70 134 -5 7 -33 22 -62 34 -72 32 -175 36 -244 12z"/>
<path d="M1120 2490 c-25 -25 -25 -31 1 -64 30 -38 90 -37 130 3 55 55 35 81
-63 81 -35 0 -54 -6 -68 -20z"/>
<path d="M4334 2670 c-40 -16 -54 -49 -54 -130 0 -68 3 -79 25 -100 37 -35 98
-32 138 8 59 59 46 181 -23 217 -32 17 -54 18 -86 5z"/>
<path d="M3850 2574 c-15 -39 -12 -51 17 -74 l27 -21 28 28 c26 26 27 32 17
61 -9 28 -16 32 -45 32 -28 0 -36 -5 -44 -26z"/>
<path d="M3802 2432 c-12 -31 -20 -57 -18 -59 1 -1 20 15 41 37 l39 40 -21 19
-21 20 -20 -57z"/>
<path d="M3945 2470 c-19 -21 -19 -21 23 -63 l42 -41 -19 49 c-10 28 -20 56
-22 63 -3 10 -10 8 -24 -8z"/>
<path d="M3840 2365 l-54 -55 109 0 109 0 -54 55 c-30 30 -55 55 -55 55 0 0
-25 -25 -55 -55z"/>
<path d="M2142 1900 c-28 -26 -30 -90 -4 -113 25 -23 85 -22 105 1 41 45 6
132 -53 132 -14 0 -36 -9 -48 -20z"/>
<path d="M1380 1935 l0 -45 58 0 c44 0 63 5 75 18 40 44 13 72 -70 72 l-63 0
0 -45z"/>
<path d="M1380 1815 l0 -45 68 0 c72 0 92 10 92 45 0 35 -20 45 -92 45 l-68 0
0 -45z"/>
<path d="M2402 1897 c-12 -13 -22 -26 -22 -30 0 -4 32 -7 70 -7 39 0 70 4 70
10 0 18 -44 50 -70 50 -15 0 -36 -10 -48 -23z"/>
</g>
</svg>
