<svg xmlns="http://www.w3.org/2000/svg" width="13.776" height="16.53" viewBox="0 0 13.776 16.53">
    <defs>
        <style>
            .cls-1 {
                fill: #818fae;
            }
        </style>
    </defs>
    <g id="filenew" transform="translate(-42.65 0)">
        <path fill="#818fae" id="Path_4" data-name="Path 4" class="cls-1" d="M115.817,138.734h6.3v.969h-6.3Z" transform="translate(-70.805 -134.255)" />
        <path fill="#818fae" id="Path_5" data-name="Path 5" class="cls-1" d="M115.817,198.734h6.3v.969h-6.3Z" transform="translate(-70.805 -192.318)" />
        <path fill="#818fae" id="Path_6" data-name="Path 6" class="cls-1" d="M115.817,258.734h6.3v.969h-6.3Z" transform="translate(-70.805 -250.381)" />
        <path fill="#818fae" id="Path_7" data-name="Path 7" class="cls-1" d="M55.424,10.679a3.407,3.407,0,0,0-1.748-.935V0h-8.8L42.65,2.221V14.244h7.116a3.428,3.428,0,1,0,5.657-3.566ZM45.192,1.049V2.542H43.7ZM43.619,13.276V3.51H46.16V.969h6.546v8.72A3.424,3.424,0,0,0,49.572,13.1q0,.087,0,.173H43.619Zm11.12,1.565a2.458,2.458,0,1,1,0-3.478A2.443,2.443,0,0,1,54.739,14.841Z" />
        <path fill="#818fae" id="Path_8" data-name="Path 8" class="cls-1" d="M324.983,365.807h-.969v.808h-.808v.969h.808v.808h.969v-.808h.808v-.969h-.808Z" transform="translate(-271.499 -353.997)" />
    </g>
</svg>