<svg xmlns="http://www.w3.org/2000/svg" width="178.644" height="71.305" viewBox="0 0 178.644 71.305">
  <defs>
    <style>
      .cls-1, .cls-2, .cls-3 {
        fill: #fff;
      }

      .cls-1 {
        font-size: 30px;
        font-family: Karla-Bold, Karla;
        font-weight: 700;
      }

      .cls-2 {
        font-size: 14px;
        font-family: Montserrat-Regular, Montserrat;
      }
    </style>
  </defs>
  <g id="Group_91" data-name="Group 91" transform="translate(-20.356 -14.759)">
    <text id="all_Scr_pt" data-name="all Scr  pt" class="cls-1" transform="translate(62 59)"><tspan x="0" y="0" xml:space="preserve">all Scr  pt</tspan></text>
    <text id="PDS" class="cls-2" transform="translate(74 31)"><tspan x="0" y="0">PDS</tspan></text>
    <g id="phone" transform="translate(56.008 14.758) rotate(45)">
      <path id="Path_3" data-name="Path 3" class="cls-3" d="M36.237,50.42a14.047,14.047,0,0,1-4.819-.861,51.391,51.391,0,0,1-18.661-11.9A51.388,51.388,0,0,1,.861,19,13.946,13.946,0,0,1,.15,12.148,14.3,14.3,0,0,1,7.5,1.679,14.04,14.04,0,0,1,14.222,0a1.576,1.576,0,0,1,1.541,1.245l2.473,11.541a1.576,1.576,0,0,1-.426,1.444l-4.226,4.226A41.473,41.473,0,0,0,31.964,36.837l4.226-4.226a1.577,1.577,0,0,1,1.444-.426l11.541,2.473A1.576,1.576,0,0,1,50.42,36.2a14.039,14.039,0,0,1-1.679,6.722,14.3,14.3,0,0,1-10.469,7.35A14.015,14.015,0,0,1,36.237,50.42ZM12.963,3.22a11.04,11.04,0,0,0-9.14,14.707A47.789,47.789,0,0,0,32.494,46.6,11.04,11.04,0,0,0,47.2,37.457l-9.388-2.012L33.4,39.859a1.575,1.575,0,0,1-1.784.312A44.613,44.613,0,0,1,10.25,18.806a1.575,1.575,0,0,1,.312-1.784l4.413-4.413Z" transform="translate(0)"/>
    </g>
    <text id="Builder" class="cls-2" transform="translate(74 79)"><tspan x="0" y="0">Builder</tspan></text>
    <g id="antenna" transform="translate(77 37.292)">
      <g id="Group_80" data-name="Group 80" transform="translate(76.669)">
        <g id="Group_79" data-name="Group 79" transform="translate(0)">
          <path id="Path_27" data-name="Path 27" class="cls-3" d="M94.165.941,93.224,0a7.328,7.328,0,0,0,0,10.35l.941-.941A6,6,0,0,1,94.165.941Z" transform="translate(-91.084)"/>
        </g>
      </g>
      <g id="Group_82" data-name="Group 82" transform="translate(88.217)">
        <g id="Group_81" data-name="Group 81" transform="translate(0)">
          <path id="Path_28" data-name="Path 28" class="cls-3" d="M352.4,0l-.941.941a6,6,0,0,1,0,8.468l.941.941A7.328,7.328,0,0,0,352.4,0Z" transform="translate(-351.464)"/>
        </g>
      </g>
      <g id="Group_84" data-name="Group 84" transform="translate(79.328 1.882)">
        <g id="Group_83" data-name="Group 83" transform="translate(0)">
          <path id="Path_29" data-name="Path 29" class="cls-3" d="M153.347,43.378l-.941-.941a4.66,4.66,0,0,0,0,6.585l.941-.941a3.33,3.33,0,0,1,0-4.7Z" transform="translate(-151.044 -42.437)"/>
        </g>
      </g>
      <g id="Group_86" data-name="Group 86" transform="translate(86.335 1.882)">
        <g id="Group_85" data-name="Group 85" transform="translate(0)">
          <path id="Path_30" data-name="Path 30" class="cls-3" d="M309.968,42.437l-.941.941a3.33,3.33,0,0,1,0,4.7l.941.941a4.66,4.66,0,0,0,0-6.585Z" transform="translate(-309.027 -42.437)"/>
        </g>
      </g>
      <g id="Group_88" data-name="Group 88" transform="translate(81.988 3.179)">
        <g id="Group_87" data-name="Group 87" transform="translate(0)">
          <path id="Path_31" data-name="Path 31" class="cls-3" d="M213,71.675a2,2,0,1,0,2,2A2,2,0,0,0,213,71.675Z" transform="translate(-211 -71.675)"/>
        </g>
      </g>
      <g id="Group_90" data-name="Group 90" transform="translate(76 8.233)">
        <g id="Group_89" data-name="Group 89" transform="translate(0)">
          <path id="Path_32" data-name="Path 32" class="cls-3" d="M89.778,198.774l-4.49-13.145a3.31,3.31,0,0,1-2.61,0l-4.49,13.145H76V200.1H91.967v-1.331Zm-6.942-9.4H85.13l.746,2.188-1.893,1.814-1.893-1.814Zm-1.226,3.57,1.412,1.353L80.2,197Zm-1.293,5.833,3.666-3.558,3.666,3.558Zm4.628-4.48,1.412-1.353L87.769,197Z" transform="translate(-76 -185.629)"/>
        </g>
      </g>
    </g>
  </g>
</svg>
