<svg xmlns="http://www.w3.org/2000/svg" width="58" height="58" viewBox="0 0 58 58">
  <defs>
    <style>
      .cls-1 {
        fill: #ebf0f5;
      }
      .cls-2 {
        fill: #9ca9b3;
      }
    </style>
  </defs>
  <g id="Group_69" data-name="Group 69" transform="translate(100 29)">
    <circle id="Ellipse_4" data-name="Ellipse 4" class="cls-1" cx="29" cy="29" r="29" transform="translate(-100 -29)"/>
    <g id="trash" transform="translate(-137 -22.826)">
      <path id="Path_17" data-name="Path 17" class="cls-2" d="M80.185,5.478H72.652V4.109A4.113,4.113,0,0,0,68.544,0H63.065a4.113,4.113,0,0,0-4.109,4.109v1.37H51.424A3.428,3.428,0,0,0,48,8.9V13.7a1.37,1.37,0,0,0,1.37,1.37h.748L51.3,39.913a4.1,4.1,0,0,0,4.1,3.913H76.2a4.1,4.1,0,0,0,4.1-3.913l1.183-24.848h.748a1.37,1.37,0,0,0,1.37-1.37V8.9A3.428,3.428,0,0,0,80.185,5.478ZM61.7,4.109a1.371,1.371,0,0,1,1.37-1.37h5.478a1.371,1.371,0,0,1,1.37,1.37v1.37H61.7ZM50.739,8.9a.686.686,0,0,1,.685-.685H80.185a.686.686,0,0,1,.685.685v3.424H50.739Zm26.832,30.88a1.368,1.368,0,0,1-1.368,1.3h-20.8a1.368,1.368,0,0,1-1.368-1.3L52.86,15.065H78.748Z" transform="translate(0)"/>
      <path id="Path_18" data-name="Path 18" class="cls-2" d="M241.37,228.543a1.37,1.37,0,0,0,1.37-1.37v-17.8a1.37,1.37,0,1,0-2.739,0v17.8A1.37,1.37,0,0,0,241.37,228.543Z" transform="translate(-175.565 -190.196)"/>
      <path id="Path_19" data-name="Path 19" class="cls-2" d="M321.37,228.543a1.37,1.37,0,0,0,1.37-1.37v-17.8a1.37,1.37,0,1,0-2.739,0v17.8A1.37,1.37,0,0,0,321.37,228.543Z" transform="translate(-248.717 -190.196)"/>
      <path id="Path_20" data-name="Path 20" class="cls-2" d="M161.37,228.543a1.37,1.37,0,0,0,1.37-1.37v-17.8a1.37,1.37,0,1,0-2.739,0v17.8A1.37,1.37,0,0,0,161.37,228.543Z" transform="translate(-102.413 -190.196)"/>
    </g>
  </g>
</svg>
